<?xml version="1.0" encoding="UTF-8" standalone="no"?>
<!-- Created with Inkscape (http://www.inkscape.org/) -->

<svg
   xmlns:dc="http://purl.org/dc/elements/1.1/"
   xmlns:cc="http://creativecommons.org/ns#"
   xmlns:rdf="http://www.w3.org/1999/02/22-rdf-syntax-ns#"
   xmlns:svg="http://www.w3.org/2000/svg"
   xmlns="http://www.w3.org/2000/svg"
   xmlns:sodipodi="http://sodipodi.sourceforge.net/DTD/sodipodi-0.dtd"
   xmlns:inkscape="http://www.inkscape.org/namespaces/inkscape"
   version="1.1"
   id="svg8425"
   width="600"
   height="460"
   viewBox="0 0 600 460"
   sodipodi:docname="face.svg"
   inkscape:version="0.92.3 (2405546, 2018-03-11)">
  <metadata
     id="metadata8431">
    <rdf:RDF>
      <cc:Work
         rdf:about="">
        <dc:format>image/svg+xml</dc:format>
        <dc:type
           rdf:resource="http://purl.org/dc/dcmitype/StillImage" />
        <dc:title />
      </cc:Work>
    </rdf:RDF>
  </metadata>
  <defs
     id="defs8429" />
  <sodipodi:namedview
     pagecolor="#ffffff"
     bordercolor="#666666"
     borderopacity="1"
     objecttolerance="10"
     gridtolerance="10"
     guidetolerance="10"
     inkscape:pageopacity="0"
     inkscape:pageshadow="2"
     inkscape:window-width="979"
     inkscape:window-height="688"
     id="namedview8427"
     showgrid="false"
     inkscape:zoom="0.9983453"
     inkscape:cx="272.63069"
     inkscape:cy="300.54346"
     inkscape:window-x="104"
     inkscape:window-y="7"
     inkscape:window-maximized="0"
     inkscape:current-layer="svg8425" />
  <g
     id="g8978">
    <path
       style="fill:none;fill-rule:evenodd;stroke:#000000;stroke-width:2;stroke-linecap:butt;stroke-linejoin:miter;stroke-miterlimit:4;stroke-dasharray:none;stroke-opacity:1"
       d="m 268.5,237.54118 c -18.38782,-2.89825 -39.04405,-14.53202 -42.99011,-27.81984 -3.59903,-12.11924 -1.00173,-28.16397 6.28633,-38.83354 l 3.83352,-5.61219 -1.50419,-12.05723 c -1.2433,-9.96598 -1.27668,-12.33136 -0.19243,-13.6378 2.35357,-2.83587 5.61255,-1.68734 14.15552,4.98869 6.6479,5.19509 8.92983,6.45988 10.90886,6.04636 1.37637,-0.2876 7.34,-1.06714 13.2525,-1.7323 10.0828,-1.13434 24.13005,-0.44016 34.75,1.71726 1.96012,0.39819 4.3356,-0.90529 11,-6.03596 13.30672,-10.24435 16.07028,-9.0234 14.17792,6.26383 -1.6948,13.69125 -1.58497,14.64875 2.34706,20.46099 6.96559,10.29637 9.49633,26.54105 5.97965,38.383 -3.02481,10.18564 -14.87482,20.02097 -29.70153,24.65182 -14.68185,4.58561 -23.91528,6.11516 -42.3031,3.21691 z"
       id="path8990"
       inkscape:connector-curvature="0"
       sodipodi:nodetypes="zsscssscccsssssz" />
  </g>
</svg>
